<?xml version="1.0" encoding="UTF-8"?>
<svg version="1.1" xmlns="http://www.w3.org/2000/svg" width="800" height="533">
<path d="M0 0 C264 0 528 0 800 0 C800 175.89 800 351.78 800 533 C536 533 272 533 0 533 C0 357.11 0 181.22 0 0 Z " fill="#FEFEFE" transform="translate(0,0)"/>
<path d="M0 0 C34.98 0 69.96 0 106 0 C106 40.26 106 80.52 106 122 C146.59 122 187.18 122 229 122 C229 157.31 229 192.62 229 229 C188.41 229 147.82 229 106 229 C106 269.26 106 309.52 106 351 C71.02 351 36.04 351 0 351 C0 310.74 0 270.48 0 229 C-40.59 229 -81.18 229 -123 229 C-123 193.69 -123 158.38 -123 122 C-82.41 122 -41.82 122 0 122 C0 81.74 0 41.48 0 0 Z " fill="#CC0000" transform="translate(347,91)"/>
</svg>
